<svg width="18" height="19" viewBox="0 0 18 19" fill="none" xmlns="http://www.w3.org/2000/svg">
<g id="ArrowRight">
<path id="Vector" fill-rule="evenodd" clip-rule="evenodd" d="M1.125 9.49999C1.125 9.35081 1.18426 9.20774 1.28975 9.10225C1.39524 8.99676 1.53832 8.93749 1.6875 8.93749H14.9546L11.4142 5.39824C11.3086 5.29262 11.2493 5.14937 11.2493 4.99999C11.2493 4.85062 11.3086 4.70737 11.4142 4.60174C11.5199 4.49612 11.6631 4.43678 11.8125 4.43678C11.9619 4.43678 12.1051 4.49612 12.2108 4.60174L16.7108 9.10174C16.7631 9.15399 16.8047 9.21607 16.8331 9.28441C16.8614 9.35274 16.876 9.426 16.876 9.49999C16.876 9.57398 16.8614 9.64724 16.8331 9.71558C16.8047 9.78392 16.7631 9.84599 16.7108 9.89824L12.2108 14.3982C12.1051 14.5039 11.9619 14.5632 11.8125 14.5632C11.6631 14.5632 11.5199 14.5039 11.4142 14.3982C11.3086 14.2926 11.2493 14.1494 11.2493 14C11.2493 13.8506 11.3086 13.7074 11.4142 13.6017L14.9546 10.0625H1.6875C1.53832 10.0625 1.39524 10.0032 1.28975 9.89774C1.18426 9.79225 1.125 9.64918 1.125 9.49999Z" fill="#EFF1ED"/>
</g>
</svg>
