<svg width="18" height="18" viewBox="0 0 18 18" fill="none" xmlns="http://www.w3.org/2000/svg">
<g id="AwardFill" clip-path="url(#clip0_48_984)">
<path id="Vector" d="M9.00006 0L10.8777 0.972L12.9679 1.28925L13.9152 3.17925L15.4193 4.66425L15.0751 6.75L15.4193 8.83575L13.9152 10.3207L12.9679 12.2108L10.8777 12.528L9.00006 13.5L7.12244 12.528L5.03219 12.2108L4.08494 10.3207L2.58081 8.83575L2.92506 6.75L2.58081 4.66425L4.08494 3.17925L5.03219 1.28925L7.12244 0.972L9.00006 0Z" fill="#E31B17"/>
<path id="Vector_2" d="M4.5 13.2682V18L9 16.875L13.5 18V13.2682L11.2298 13.6125L9 14.7668L6.77025 13.6125L4.5 13.2682Z" fill="#E31B17"/>
</g>
<defs>
<clipPath id="clip0_48_984">
<rect width="18" height="18" fill="white"/>
</clipPath>
</defs>
</svg>
