<svg width="41" height="25" viewBox="0 0 41 25" fill="none" xmlns="http://www.w3.org/2000/svg">
<g id="Frame 71">
<path id="Vector" d="M38.3961 1.9728L38.121 2.16369C38.0298 2.22732 37.9385 2.29095 37.8458 2.35303L37.5706 2.54237L37.2939 2.7286L37.0187 2.91639L36.742 3.10107L36.4653 3.2873L36.187 3.47043L35.9103 3.65201L35.632 3.83359L35.3538 4.01207L35.0755 4.19054L34.7972 4.37367L34.519 4.5506L34.2391 4.72596L33.9609 4.90133L33.6811 5.07515L33.4059 5.24121L33.1261 5.41348L32.8447 5.58574L32.5649 5.75646L32.2805 5.92562L31.9991 6.09478L31.7177 6.26395L31.4364 6.43156L31.155 6.59762L30.8737 6.76368L30.5908 6.92974L30.314 7.09424L30.0311 7.25719L29.7482 7.42015L29.4653 7.57535L29.1824 7.73054L28.8995 7.88574L28.6166 8.04093L28.3322 8.19613L28.0493 8.35132L27.7648 8.50652L27.4804 8.66171L27.1959 8.81691L26.9115 8.9721L26.6255 9.1273L26.341 9.28249L26.055 9.43769L25.769 9.59289L25.483 9.74808L25.197 9.90328L24.911 10.0585C23.0173 11.0315 21.4853 11.7377 20.5979 12.045C22.4175 11.9255 23.4455 11.8261 25.2759 11.4025L25.5851 11.3311L25.8942 11.2566L26.2034 11.179L26.5126 11.1014L26.8218 11.0238L27.131 10.9431L27.4402 10.8624L27.5128 10.8422C27.4927 10.867 27.4742 10.8919 27.4541 10.9151L27.2995 11.1029C27.114 11.3316 26.9285 11.5551 26.743 11.7734C26.4946 12.0651 26.2452 12.3486 25.9947 12.6238C25.7443 12.8991 25.4866 13.1707 25.2218 13.4386C24.959 13.7071 24.6962 13.9678 24.4333 14.2146C24.1705 14.4614 23.8923 14.7205 23.6233 14.958C23.3543 15.1954 23.0683 15.4375 22.7916 15.6641C22.5149 15.8907 22.2227 16.1188 21.9382 16.3315C21.6538 16.5441 21.3539 16.7613 21.0632 16.9615C20.7726 17.1618 20.4634 17.3651 20.165 17.5513C19.8667 17.7375 19.5467 17.9284 19.2375 18.1007C18.9283 18.273 18.6021 18.4483 18.2898 18.6066C17.9776 18.7649 17.639 18.9263 17.319 19.0722C16.999 19.2181 16.6465 19.3609 16.3188 19.485C15.991 19.6092 15.6247 19.7395 15.2892 19.8466C15.1222 19.8994 14.9553 19.9506 14.7914 20.0018C14.6028 20.0561 14.4142 20.1058 14.2271 20.157C13.8561 20.2501 13.4882 20.3293 13.1264 20.3945C12.7379 20.4648 12.3566 20.5191 11.9825 20.5574C11.5712 20.5993 11.1724 20.6211 10.7859 20.6273C10.3633 20.6345 9.94065 20.6184 9.51981 20.5792C9.05285 20.534 8.59052 20.4494 8.13775 20.3262C7.81016 20.2372 7.49139 20.1183 7.18546 19.9708C6.21771 19.4897 5.8606 18.7696 6.19916 18.0464C6.29034 17.8651 6.40467 17.6966 6.53926 17.5451C6.78193 17.2707 7.05768 17.0278 7.36015 16.8219C7.65648 16.6172 7.96639 16.4332 8.2877 16.2709C8.53814 16.1406 8.80559 16.0149 9.08385 15.8969L9.26782 15.824C9.59865 15.6884 9.93978 15.5648 10.2912 15.4531C10.6427 15.3413 10.9967 15.2379 11.3533 15.1427C11.7135 15.0527 12.0799 14.9704 12.4509 14.899C12.6967 14.8509 12.9456 14.8059 13.196 14.7671C13.3228 14.7469 13.4511 14.7298 13.5794 14.7112C13.9607 14.6585 14.3482 14.615 14.7419 14.5809C15.1362 14.5467 15.535 14.5219 15.9354 14.5048C16.3358 14.4877 16.7516 14.4831 17.1613 14.4862C17.3731 14.4862 17.5834 14.4862 17.7951 14.4971C17.8292 14.4474 18.2481 14.4319 18.3548 14.4288H18.3656C18.7737 14.4132 19.1911 14.4179 19.6023 14.4288C20.0135 14.4396 20.417 14.4738 20.8051 14.5079C20.3969 14.4567 19.9857 14.4163 19.5683 14.3822C19.1509 14.3481 18.7134 14.3201 18.2852 14.3015C17.857 14.2829 17.4489 14.2767 17.0345 14.2782C16.6202 14.2798 16.2168 14.2891 15.8148 14.3077C15.5566 14.3201 15.3 14.3372 15.0419 14.3574C14.9027 14.3682 14.762 14.3822 14.6229 14.3962C14.2364 14.4334 13.8499 14.4815 13.4666 14.5374C13.0832 14.5933 12.7137 14.6554 12.3411 14.7298C11.9686 14.8043 11.6083 14.885 11.2481 14.9813C10.8879 15.0775 10.5355 15.1753 10.1876 15.2917C10.047 15.3367 9.90474 15.3817 9.76561 15.4298C9.55691 15.5027 9.35439 15.585 9.15961 15.6564C8.80714 15.796 8.48094 15.9435 8.1764 16.0956C7.85696 16.2538 7.54722 16.431 7.24884 16.6263C6.9446 16.822 6.65894 17.0454 6.39549 17.2937C6.32129 17.3651 6.25017 17.4364 6.18679 17.5078C5.98776 17.7244 5.82394 17.9711 5.70137 18.2388C5.41383 18.8875 5.48649 19.5688 6.01983 20.2284C6.19452 20.4441 6.85772 21.0401 6.11104 21.1006C5.93087 21.1104 5.75018 21.1026 5.57151 21.0773C5.29824 21.0455 5.02824 20.99 4.76454 20.9113C3.99158 20.6738 3.5278 20.2641 3.32065 19.8032C3.22313 19.5806 3.17278 19.3402 3.17278 19.097C3.17278 18.8539 3.22313 18.6134 3.32065 18.3909C3.35806 18.2961 3.4025 18.2043 3.4536 18.1162C3.60248 17.8614 3.77986 17.6245 3.9823 17.4101C4.23705 17.1487 4.51376 16.9098 4.80937 16.6962C5.09958 16.4857 5.40041 16.2904 5.71065 16.1111C5.97655 15.9559 6.2579 15.8007 6.55008 15.6626L6.65985 15.6098C6.96903 15.4587 7.29677 15.3118 7.64305 15.169C7.9677 15.034 8.30626 14.9052 8.65563 14.7795C9.00501 14.6538 9.34048 14.5452 9.69604 14.4365C10.0516 14.3279 10.3963 14.227 10.7565 14.1261L11.2358 14.002C11.3275 13.9782 11.4203 13.9565 11.514 13.9368C11.2559 13.9927 11.0023 14.0532 10.7504 14.1153C10.3855 14.2053 10.03 14.3015 9.67904 14.4024C9.32811 14.5033 8.96946 14.6119 8.62781 14.7252C8.28616 14.8385 7.93369 14.9642 7.59977 15.0899C7.26585 15.2156 6.91956 15.3584 6.59801 15.4996C6.45887 15.5601 6.31974 15.6207 6.18679 15.6827C5.9951 15.7712 5.80959 15.8643 5.62562 15.959C5.29943 16.125 4.98561 16.3004 4.68879 16.4804C4.39197 16.6605 4.07042 16.8731 3.79525 17.0795C3.50286 17.2957 3.22502 17.5311 2.96354 17.7841C2.6888 18.0484 2.44219 18.3407 2.22768 18.6563C2.15502 18.7665 2.08545 18.8767 2.02362 18.99C1.87017 19.2762 1.76566 19.5862 1.71443 19.9072C1.66538 20.2114 1.67062 20.522 1.72989 20.8244C1.8582 21.4762 2.22922 22.1094 2.79967 22.7627C2.97591 22.9645 3.51389 23.5387 2.48121 23.4021C1.93121 23.3385 1.40269 23.1507 0.935284 22.8528C0.561444 22.6123 0.242668 22.2949 0 21.9216C0.260925 22.4974 0.680374 22.9863 1.20891 23.3308C1.5529 23.5679 1.91955 23.7702 2.30343 23.9345C2.50131 24.0198 2.7131 24.0974 2.93107 24.1735C3.38673 24.3297 3.85135 24.4582 4.32241 24.5584L4.40125 24.5723C4.82947 24.6623 5.28552 24.7353 5.7663 24.7958C6.12186 24.8393 6.4867 24.8781 6.86854 24.9044L7.07261 24.9153C7.47609 24.9386 7.89195 24.9463 8.32326 24.9386C8.71386 24.9324 9.11477 24.9132 9.52599 24.8812C9.90629 24.8501 10.299 24.8082 10.6916 24.7555C11.0626 24.7042 11.4414 24.6437 11.8248 24.5739C12.2082 24.504 12.556 24.4295 12.9286 24.3442C13.3011 24.2588 13.6459 24.1719 14.0107 24.071C14.3756 23.9702 14.7126 23.8708 15.0681 23.7607C15.4237 23.6505 15.7561 23.5341 16.1039 23.4099C16.2415 23.3602 16.3791 23.3121 16.5182 23.2547C16.7161 23.1818 16.9171 23.0995 17.1211 23.0219C17.4468 22.8916 17.7792 22.7529 18.1182 22.606C18.4398 22.4648 18.7675 22.3173 19.0999 22.1606C19.4323 22.0038 19.7384 21.8502 20.0646 21.695C20.3907 21.5398 20.6953 21.3706 21.0153 21.1968C21.3353 21.023 21.6337 20.8554 21.9521 20.6738C22.2706 20.4922 22.5705 20.3169 22.8797 20.1275C23.1889 19.9382 23.4841 19.7535 23.7887 19.5564C24.0932 19.3593 24.3839 19.1684 24.6853 18.9651C24.9868 18.7618 25.2728 18.5616 25.5696 18.3443C25.8664 18.1271 26.1493 17.9269 26.4415 17.708C26.7337 17.4892 27.0135 17.2782 27.301 17.0531C27.5886 16.8281 27.8653 16.6077 28.1482 16.3765C28.4311 16.1452 28.7063 15.9186 28.9861 15.6812C29.2659 15.4437 29.5349 15.2156 29.8116 14.9642C30.0883 14.7128 30.3527 14.48 30.6263 14.2301C30.8999 13.9803 31.1612 13.7335 31.4302 13.4759C31.6992 13.2182 31.9574 12.9653 32.2217 12.6999C32.4861 12.4345 32.7427 12.1769 33.004 11.9084C33.2652 11.6399 33.5095 11.3838 33.763 11.1138L33.7924 11.1278C33.9315 11.1945 34.5854 11.5095 35.3677 11.8184L35.4434 11.8494C35.9598 12.0558 36.5256 12.256 37.0033 12.4097C37.3124 12.5074 37.5938 12.585 37.8056 12.6316C37.6582 12.4391 37.5322 12.2309 37.4299 12.0108C37.1383 11.3916 36.9533 10.7273 36.8827 10.0461C36.8827 10.0461 36.8827 10.0461 36.8827 10.0367C36.8219 9.36395 36.8452 8.68616 36.9522 8.0192C37.0335 7.49745 37.1507 6.98199 37.3032 6.47656C37.3027 6.46881 37.3027 6.46104 37.3032 6.45328C37.4165 6.10875 37.55 5.74663 37.7036 5.36692L37.7237 5.31571L37.787 5.16051C37.787 5.14965 37.7979 5.13568 37.8041 5.12326C37.8195 5.08446 37.8365 5.04567 37.8551 5.00532L37.8798 4.94789C37.8798 4.93237 37.8937 4.91686 37.8999 4.89978L37.9262 4.84391L37.9509 4.78649C37.9679 4.74924 37.9849 4.71044 38.0035 4.6732C38.022 4.63595 38.0174 4.64061 38.0251 4.62509C38.0483 4.57232 38.0746 4.518 38.0993 4.46989V4.45592L38.1071 4.43885L38.172 4.30538C38.172 4.28676 38.1905 4.26814 38.1998 4.24796C38.2091 4.22779 38.2354 4.17502 38.2524 4.13778L38.2833 4.07725L38.3096 4.02448L38.342 3.96085L38.3683 3.90808C38.3961 3.85221 38.424 3.79635 38.4533 3.74048L38.4719 3.70633L38.5229 3.60856L38.543 3.56976L38.577 3.50613L38.6358 3.39594L38.6729 3.32766L38.7362 3.21281L38.7672 3.15849C38.7981 3.10107 38.8305 3.04365 38.863 2.98623C38.8707 2.97226 38.8785 2.95829 38.8877 2.94432C38.9125 2.89932 38.9388 2.85431 38.965 2.8093C38.9913 2.7643 38.9913 2.76119 39.0052 2.73791L39.0702 2.62772C39.0841 2.60134 39.0995 2.57651 39.115 2.55168C39.1305 2.52685 39.1583 2.47719 39.1815 2.43994L39.2232 2.367L39.3221 2.2118L39.3593 2.14973C39.3886 2.10472 39.4164 2.05816 39.4443 2.01315L39.4922 1.93556L39.5633 1.82381L39.6143 1.74311L39.6885 1.62671L39.7365 1.55222L39.8447 1.38461L39.8818 1.32874L39.9853 1.17355C40.0024 1.15027 40.0178 1.12544 40.0348 1.1006L40.1198 0.974897L40.1709 0.898848C40.2018 0.855393 40.2312 0.810391 40.2605 0.766936L40.3084 0.69865L40.446 0.5C39.7875 0.985761 39.1026 1.47928 38.3961 1.9728Z" fill="#E31B17"/>
</g>
</svg>
