<svg width="50" height="50" viewBox="0 0 50 50" fill="none" xmlns="http://www.w3.org/2000/svg">
<g id="Quote">
<path id="Vector" d="M37.5001 37.5C38.3289 37.5 39.1237 37.1708 39.7098 36.5847C40.2958 35.9987 40.6251 35.2038 40.6251 34.375V26.7437C40.6251 25.9149 40.2958 25.1201 39.7098 24.534C39.1237 23.948 38.3289 23.6188 37.5001 23.6188H33.1626C33.1626 22.5219 33.2282 21.4219 33.3563 20.325C33.5501 19.1625 33.8751 18.1281 34.3251 17.225C34.7782 16.3188 35.3594 15.6094 36.0719 15.0906C36.7813 14.5094 37.6844 14.2188 38.7844 14.2188V9.375C36.9751 9.375 35.3938 9.7625 34.0344 10.5375C32.6869 11.3046 31.5283 12.3639 30.6438 13.6375C29.7561 15.0416 29.1018 16.5803 28.7063 18.1938C28.3078 19.9743 28.1128 21.7942 28.1251 23.6188V34.375C28.1251 35.2038 28.4543 35.9987 29.0403 36.5847C29.6264 37.1708 30.4212 37.5 31.2501 37.5H37.5001ZM18.7501 37.5C19.5789 37.5 20.3737 37.1708 20.9598 36.5847C21.5458 35.9987 21.8751 35.2038 21.8751 34.375V26.7437C21.8751 25.9149 21.5458 25.1201 20.9598 24.534C20.3737 23.948 19.5789 23.6188 18.7501 23.6188H14.4126C14.4126 22.5219 14.4782 21.4219 14.6063 20.325C14.8001 19.1625 15.1251 18.1281 15.5751 17.225C16.0282 16.3188 16.6094 15.6094 17.3219 15.0906C18.0313 14.5094 18.9344 14.2188 20.0344 14.2188V9.375C18.2251 9.375 16.6438 9.7625 15.2844 10.5375C13.9369 11.3046 12.7783 12.3639 11.8938 13.6375C11.0061 15.0416 10.3518 16.5803 9.9563 18.1938C9.55782 19.9743 9.36282 21.7942 9.37505 23.6188V34.375C9.37505 35.2038 9.70429 35.9987 10.2903 36.5847C10.8764 37.1708 11.6713 37.5 12.5001 37.5H18.7501Z" fill="#E31B17"/>
</g>
</svg>
