<svg width="50" height="50" viewBox="0 0 50 50" fill="none" xmlns="http://www.w3.org/2000/svg">
<g id="Quote">
<path id="Vector" d="M12.4999 37.5C11.6711 37.5 10.8763 37.1708 10.2902 36.5847C9.70419 35.9987 9.37495 35.2038 9.37495 34.375V26.7437C9.37495 25.9149 9.70419 25.1201 10.2902 24.534C10.8763 23.948 11.6711 23.6188 12.4999 23.6188H16.8374C16.8374 22.5219 16.7718 21.4219 16.6437 20.325C16.4499 19.1625 16.1249 18.1281 15.6749 17.225C15.2218 16.3188 14.6406 15.6094 13.9281 15.0906C13.2187 14.5094 12.3156 14.2188 11.2156 14.2188V9.375C13.0249 9.375 14.6062 9.7625 15.9656 10.5375C17.3131 11.3046 18.4717 12.3639 19.3562 13.6375C20.2439 15.0416 20.8982 16.5803 21.2937 18.1938C21.6922 19.9743 21.8872 21.7942 21.8749 23.6188V34.375C21.8749 35.2038 21.5457 35.9987 20.9597 36.5847C20.3736 37.1708 19.5788 37.5 18.7499 37.5H12.4999ZM31.2499 37.5C30.4211 37.5 29.6263 37.1708 29.0402 36.5847C28.4542 35.9987 28.1249 35.2038 28.1249 34.375V26.7437C28.1249 25.9149 28.4542 25.1201 29.0402 24.534C29.6263 23.948 30.4211 23.6188 31.2499 23.6188H35.5874C35.5874 22.5219 35.5218 21.4219 35.3937 20.325C35.1999 19.1625 34.8749 18.1281 34.4249 17.225C33.9718 16.3188 33.3906 15.6094 32.6781 15.0906C31.9687 14.5094 31.0656 14.2188 29.9656 14.2188V9.375C31.7749 9.375 33.3562 9.7625 34.7156 10.5375C36.0631 11.3046 37.2217 12.3639 38.1062 13.6375C38.9939 15.0416 39.6482 16.5803 40.0437 18.1938C40.4422 19.9743 40.6372 21.7942 40.6249 23.6188V34.375C40.6249 35.2038 40.2957 35.9987 39.7097 36.5847C39.1236 37.1708 38.3287 37.5 37.4999 37.5H31.2499Z" fill="#E31B17"/>
</g>
</svg>
